<?xml version="1.0" encoding="UTF-8" standalone="no"?>
<svg
   xmlnsDc="http://purl.org/dc/elements/1.1/"
   xmlnsCc="http://creativecommons.org/ns#"
   xmlnsRdf="http://www.w3.org/1999/02/22-rdf-syntax-ns#"
   xmlnsSvg="http://www.w3.org/2000/svg"
   xmlns="http://www.w3.org/2000/svg"
   xmlnsSodipodi="http://sodipodi.sourceforge.net/DTD/sodipodi-0.dtd"
   xmlnsInkscape="http://www.inkscape.org/namespaces/inkscape"
   viewBox="0 -256 1950 1950"
   id="svg3037"
   version="1.1"
   inkscapeVersion="0.48.3.1 r9886"
   width="100%"
   height="100%"
   sodipodiDocname="group_font_awesome.svg">
  <metadata
     id="metadata3047">
    <rdf:RDF>
      <cc:Work
         rdfAbout="">
        <dc:format>image/svg+xml</dc:format>
        <dc:type
           rdfResource="http://purl.org/dc/dcmitype/StillImage" />
      </cc:Work>
    </rdf:RDF>
  </metadata>
  <defs
     id="defs3045" />
  <sodipodi:namedview
     pagecolor="#ffffff"
     bordercolor="#666666"
     borderopacity="1"
     objecttolerance="10"
     gridtolerance="10"
     guidetolerance="10"
     inkscapePageopacity="0"
     inkscapePageshadow="2"
     inkscapeWindow-width="640"
     inkscapeWindow-height="480"
     id="namedview3043"
     showgrid="false"
     inkscapeZoom="0.13169643"
     inkscapeCx="960"
     inkscapeCy="896"
     inkscapeWindow-x="0"
     inkscapeWindow-y="25"
     inkscapeWindow-maximized="0"
     inkscapeCurrent-layer="svg3037" />
  <g
     transform="matrix(1,0,0,-1,15.186441,1359.8983)"
     id="g3039">
    <path
       d="M 593,640 Q 431,635 328,512 H 194 Q 112,512 56,552.5 0,593 0,671 q 0,353 124,353 6,0 43.5,-21 Q 205,982 265,960.5 325,939 384,939 q 67,0 133,23 -5,-37 -5,-66 0,-139 81,-256 z M 1664,3 q 0,-120 -73,-189.5 -73,-69.5 -194,-69.5 H 523 q -121,0 -194,69.5 -73,69.5 -73,189.5 0,53 3.5,103.5 3.5,50.5 14,109 Q 284,274 300,324 q 16,50 43,97.5 27,47.5 62,81 35,33.5 85.5,53.5 50.5,20 111.5,20 10,0 43,-21.5 33,-21.5 73,-48 40,-26.5 107,-48 67,-21.5 135,-21.5 68,0 135,21.5 67,21.5 107,48 40,26.5 73,48 33,21.5 43,21.5 61,0 111.5,-20 50.5,-20 85.5,-53.5 35,-33.5 62,-81 27,-47.5 43,-97.5 16,-50 26.5,-108.5 10.5,-58.5 14,-109 Q 1664,56 1664,3 z M 640,1280 q 0,-106 -75,-181 -75,-75 -181,-75 -106,0 -181,75 -75,75 -75,181 0,106 75,181 75,75 181,75 106,0 181,-75 75,-75 75,-181 z M 1344,896 Q 1344,737 1231.5,624.5 1119,512 960,512 801,512 688.5,624.5 576,737 576,896 576,1055 688.5,1167.5 801,1280 960,1280 q 159,0 271.5,-112.5 Q 1344,1055 1344,896 z m 576,-225 q 0,-78 -56,-118.5 Q 1808,512 1726,512 h -134 q -103,123 -265,128 81,117 81,256 0,29 -5,66 66,-23 133,-23 59,0 119,21.5 60,21.5 97.5,42.5 37.5,21 43.5,21 124,0 124,-353 z m -128,609 q 0,-106 -75,-181 -75,-75 -181,-75 -106,0 -181,75 -75,75 -75,181 0,106 75,181 75,75 181,75 106,0 181,-75 75,-75 75,-181 z"
       id="path3041"
       inkscapeConnector-curvature="0"
       style="fill:currentColor" />
  </g>
</svg>
